<svg width="448" height="448" viewBox="0 0 448 448" fill="none" xmlns="http://www.w3.org/2000/svg">
<path d="M224 428.225C340.581 428.225 435.089 373.66 435.089 306.351C435.089 239.042 340.581 184.477 224 184.477C107.419 184.477 12.9114 239.042 12.9114 306.351C12.9114 373.66 107.419 428.225 224 428.225Z" fill="#F0F0F0"/>
<path d="M180.32 398.702C220.521 398.702 253.111 379.888 253.111 356.68C253.111 333.471 220.521 314.657 180.32 314.657C140.119 314.657 107.529 333.471 107.529 356.68C107.529 379.888 140.119 398.702 180.32 398.702Z" fill="#E0E0E0"/>
<path d="M387.323 304.102L378.784 299.174C378.784 299.174 376.696 280.896 378.085 266.739C380.038 246.848 392.887 222.907 408.209 228.534C423.53 234.161 401.184 254.41 396.211 271.282C391.238 288.154 387.323 304.102 387.323 304.102Z" fill="#0E4FDA"/>
<path opacity="0.15" d="M387.323 304.102L378.784 299.174C378.784 299.174 376.696 280.896 378.085 266.739C380.038 246.848 392.887 222.907 408.209 228.534C423.53 234.161 401.184 254.41 396.211 271.282C391.238 288.154 387.323 304.102 387.323 304.102Z" fill="black"/>
<path d="M382.834 302.033C382.97 302.026 383.098 301.965 383.19 301.865C383.283 301.764 383.332 301.631 383.327 301.495C381.83 257.295 403.836 235.057 404.051 234.842C404.149 234.744 404.203 234.612 404.203 234.474C404.203 234.337 404.149 234.204 404.051 234.107C404.004 234.059 403.947 234.021 403.885 233.995C403.823 233.969 403.756 233.956 403.688 233.956C403.621 233.956 403.554 233.969 403.492 233.995C403.429 234.021 403.373 234.059 403.325 234.107C403.093 234.322 380.773 256.883 382.287 301.531C382.29 301.6 382.306 301.668 382.334 301.731C382.363 301.793 382.404 301.85 382.455 301.897C382.506 301.943 382.566 301.979 382.631 302.003C382.696 302.026 382.765 302.036 382.834 302.033Z" fill="white"/>
<path d="M392.69 307.176L386.615 303.672C386.615 303.672 385.576 291.128 391.731 275.896C397.107 262.636 410.368 251.624 417.052 253.935C423.736 256.247 423.566 260.987 420.305 265.96C417.043 270.933 397.233 282.769 392.69 307.176Z" fill="#0E4FDA"/>
<path d="M389.482 305.85C389.619 305.847 389.75 305.792 389.847 305.695C389.944 305.598 390 305.467 390.002 305.33C389.876 277.375 416.12 258.487 416.389 258.299C416.445 258.261 416.493 258.211 416.529 258.154C416.566 258.097 416.59 258.032 416.601 257.965C416.612 257.898 416.609 257.83 416.593 257.764C416.576 257.698 416.547 257.636 416.506 257.582C416.426 257.472 416.307 257.396 416.173 257.373C416.039 257.35 415.901 257.38 415.789 257.457C415.52 257.645 388.846 276.855 388.963 305.33C388.963 305.468 389.017 305.6 389.115 305.697C389.212 305.795 389.344 305.85 389.482 305.85Z" fill="white"/>
<path d="M71.3754 293.126L79.2602 287.804C79.2602 287.804 82.7277 267.196 79.5021 249.016C74.9683 223.516 57.344 215.04 51.072 217.728C44.8 220.416 43.456 228.005 55.1667 242.556C62.1107 251.113 71.1335 269.382 71.3754 293.126Z" fill="#0E4FDA"/>
<g opacity="0.15">
<path opacity="0.15" d="M71.3754 293.126L79.2602 287.804C79.2602 287.804 82.7277 267.196 79.5021 249.016C74.9683 223.516 57.344 215.04 51.072 217.728C44.8 220.416 43.456 228.005 55.1667 242.556C62.1107 251.113 71.1335 269.382 71.3754 293.126Z" fill="black"/>
</g>
<path d="M74.0813 282.912H74.0006C73.9201 282.907 73.8415 282.885 73.7701 282.847C73.6986 282.81 73.6359 282.758 73.586 282.694C73.5361 282.631 73.5002 282.558 73.4805 282.479C73.4609 282.401 73.458 282.32 73.472 282.24C76.3213 258.236 66.1875 232.181 55.1578 221.814C55.0516 221.706 54.9921 221.562 54.9921 221.411C54.9921 221.26 55.0516 221.115 55.1578 221.007C55.2103 220.954 55.273 220.911 55.3423 220.882C55.4115 220.853 55.4859 220.838 55.5609 220.838C55.636 220.838 55.7104 220.853 55.7796 220.882C55.8489 220.911 55.9116 220.954 55.9641 221.007C67.2 231.562 77.5219 258.048 74.6368 282.401C74.6199 282.539 74.5547 282.665 74.4529 282.759C74.3512 282.852 74.2194 282.907 74.0813 282.912Z" fill="white"/>
<path d="M50.7315 307.05C49.4771 307.803 45.8214 305.088 44.8089 304.434C43.0737 303.301 41.6603 301.739 40.7053 299.9C39.6339 297.815 39.2363 295.448 39.5673 293.126C39.7509 291.915 40.0173 290.717 40.3648 289.542C40.6784 288.369 40.992 287.195 41.2608 286.012C41.6581 284.862 41.8107 283.641 41.7088 282.428C41.3593 280.036 39.2 278.396 37.2288 276.99C35.0605 275.422 32.7488 273.352 32.7488 270.467C32.8593 268.2 33.7269 266.036 35.2128 264.32C36.5568 262.528 38.1696 260.969 39.3792 259.096C40.325 257.799 40.8078 256.221 40.7501 254.616C40.5943 253.627 40.2408 252.679 39.7107 251.83C38.6534 249.966 37.2825 248.246 36.5389 246.266C35.7952 244.286 35.8489 241.741 37.4349 240.263C38.6982 239.053 40.6246 238.856 42.3718 238.936C44.0182 239.1 45.6086 239.623 47.031 240.469C51.6633 242.933 54.3872 248.309 59.2883 250.181C61.1789 250.898 63.2397 251.023 65.2019 251.507C67.1641 251.991 69.1891 252.95 70.1299 254.733C71.9846 258.272 68.7501 262.734 70.0761 266.488C71.2589 269.822 74.5561 271.04 76.4198 274.024C77.1762 275.349 77.4901 276.881 77.3158 278.396C77.2107 280.955 76.6367 283.473 75.6224 285.824C74.4558 288.263 73.1391 290.627 71.68 292.902C71.68 292.902 50.9197 306.934 50.7315 307.05Z" fill="#0E4FDA"/>
<path d="M62.8454 299.622C62.7701 299.621 62.6958 299.605 62.6266 299.575C62.5575 299.545 62.495 299.502 62.4425 299.448C62.3901 299.394 62.3489 299.33 62.3211 299.26C62.2934 299.19 62.2798 299.115 62.2809 299.04C62.7827 276.353 51.6185 251.552 43.7158 244.384C43.6035 244.283 43.5358 244.141 43.5274 243.99C43.519 243.839 43.5706 243.691 43.671 243.578C43.7236 243.524 43.7863 243.481 43.8555 243.452C43.9248 243.423 43.9991 243.408 44.0742 243.408C44.1493 243.408 44.2237 243.423 44.2929 243.452C44.3621 243.481 44.4249 243.524 44.4774 243.578C52.5414 250.835 63.9296 276.067 63.4189 299.067C63.4177 299.141 63.4019 299.214 63.3725 299.282C63.343 299.35 63.3005 299.412 63.2472 299.463C63.194 299.515 63.1311 299.556 63.0621 299.583C62.9932 299.61 62.9195 299.624 62.8454 299.622Z" fill="white"/>
<path d="M58.6611 271.981C58.6082 271.994 58.5528 271.994 58.4998 271.981C51.1705 269.866 42.0851 269.651 41.9955 269.642C41.9206 269.641 41.8467 269.625 41.778 269.595C41.7094 269.565 41.6474 269.522 41.5957 269.467C41.544 269.413 41.5036 269.349 41.4769 269.279C41.4501 269.209 41.4376 269.135 41.44 269.06C41.4386 268.984 41.4529 268.909 41.482 268.839C41.5112 268.769 41.5545 268.706 41.6092 268.654C41.664 268.602 41.7289 268.562 41.8001 268.536C41.8712 268.51 41.9469 268.499 42.0224 268.504C42.112 268.504 51.3408 268.728 58.8134 270.879C58.9578 270.922 59.0793 271.021 59.1514 271.154C59.2235 271.286 59.2405 271.442 59.1987 271.587C59.1638 271.702 59.0926 271.802 58.9956 271.873C58.8987 271.944 58.7813 271.982 58.6611 271.981Z" fill="white"/>
<path d="M269.839 277.527L266.443 275.565C265.878 275.197 265.407 274.702 265.069 274.118C264.731 273.534 264.536 272.878 264.499 272.205V131.067C264.536 130.394 264.731 129.74 265.067 129.156C265.403 128.573 265.871 128.076 266.434 127.707L360.828 73.2122C361.429 72.9075 362.094 72.7488 362.768 72.7488C363.442 72.7488 364.107 72.9075 364.708 73.2122L368.104 75.1744C368.669 75.5418 369.14 76.0376 369.478 76.6215C369.816 77.2054 370.011 77.8608 370.048 78.5344V219.672C370.011 220.345 369.817 220.999 369.48 221.583C369.144 222.166 368.676 222.663 368.113 223.032L273.719 277.536C273.118 277.841 272.452 278 271.778 277.998C271.104 277.997 270.439 277.835 269.839 277.527Z" fill="#455A64"/>
<path d="M370.048 78.2208C369.914 77.2173 369.098 76.8499 368.122 77.4144L273.719 131.918C273.148 132.276 272.677 132.772 272.348 133.361L265.064 129.158C265.389 128.566 265.861 128.066 266.434 127.707L360.828 73.2122C361.429 72.9075 362.094 72.7488 362.768 72.7488C363.442 72.7488 364.107 72.9075 364.708 73.2122L368.104 75.1744C368.628 75.5121 369.073 75.9591 369.409 76.4849C369.745 77.0108 369.963 77.6029 370.048 78.2208Z" fill="#455A64"/>
<path d="M273.388 277.688C272.814 277.921 272.197 278.027 271.579 278.001C270.961 277.975 270.355 277.816 269.804 277.536L266.399 275.565C265.836 275.195 265.367 274.699 265.031 274.115C264.695 273.532 264.5 272.877 264.463 272.205V131.067C264.486 130.393 264.681 129.736 265.028 129.158L272.312 133.361C271.958 133.939 271.761 134.6 271.739 135.278V276.416C271.775 277.527 272.474 278.038 273.388 277.688Z" fill="#263238"/>
<path d="M271.775 135.296V276.416C271.775 277.653 272.671 278.154 273.719 277.536L368.113 223.032C368.676 222.663 369.144 222.166 369.48 221.583C369.817 220.999 370.011 220.345 370.048 219.672V78.5345C370.048 77.298 369.152 76.7962 368.113 77.4145L273.719 131.918C273.151 132.287 272.678 132.786 272.34 133.373C272.002 133.96 271.809 134.619 271.775 135.296Z" fill="#37474F"/>
<path d="M249.733 189.056C248.515 188.33 242.861 185.114 242.565 184.943C242.335 184.806 242.138 184.618 241.99 184.395C241.842 184.171 241.745 183.917 241.708 183.651C241.671 183.386 241.695 183.115 241.776 182.86C241.858 182.604 241.996 182.37 242.18 182.175L264.499 158.234L271.775 162.409L249.464 186.368C249.289 186.555 249.156 186.777 249.074 187.019C248.991 187.261 248.962 187.518 248.987 187.773C249.013 188.028 249.093 188.274 249.221 188.495C249.35 188.717 249.524 188.908 249.733 189.056Z" fill="#455A64"/>
<path d="M271.775 162.436L249.464 186.368C249.216 186.633 249.055 186.966 249 187.324C248.946 187.683 249.002 188.049 249.16 188.375C249.318 188.701 249.571 188.972 249.886 189.151C250.202 189.33 250.564 189.41 250.925 189.379L271.775 187.658V162.436Z" fill="#37474F"/>
<path d="M320.911 119.347C331.914 112.995 340.829 118.147 340.829 130.852C340.829 143.557 331.914 158.995 320.911 165.348C309.908 171.701 300.993 166.549 300.993 153.852C300.993 141.156 309.908 125.7 320.911 119.347Z" fill="#0E4FDA"/>
<path d="M320.768 129.347C324.352 127.286 327.228 128.952 327.228 133.074C327.106 135.314 326.457 137.494 325.335 139.437C324.213 141.38 322.648 143.031 320.768 144.256C317.184 146.317 314.299 144.65 314.299 140.529C314.422 138.287 315.072 136.107 316.196 134.164C317.32 132.221 318.886 130.57 320.768 129.347Z" fill="white"/>
<path d="M333.509 151.317C333.509 144.552 328.751 141.801 322.891 145.188L319.227 147.302C313.367 150.689 308.609 158.95 308.609 165.697V167.552C309.716 167.906 310.87 168.084 312.032 168.081C315.175 167.974 318.236 167.047 320.911 165.393C326.005 162.255 330.314 157.995 333.509 152.938V151.317Z" fill="white"/>
<path d="M308.296 228.238L333.527 213.669C334.602 213.051 335.471 213.553 335.471 214.789V222.916C335.435 223.59 335.24 224.245 334.902 224.829C334.564 225.413 334.093 225.909 333.527 226.276L308.296 240.845C307.22 241.463 306.351 240.961 306.351 239.725V231.598C306.388 230.925 306.583 230.269 306.921 229.685C307.259 229.101 307.73 228.606 308.296 228.238Z" fill="#0E4FDA"/>
<path d="M295.94 210.085L345.856 181.252C347.137 180.508 348.186 181.108 348.186 182.596V185.615C348.142 186.423 347.908 187.209 347.503 187.91C347.098 188.611 346.534 189.206 345.856 189.647L295.913 218.481C294.632 219.224 293.592 218.624 293.592 217.137V214.144C293.633 213.33 293.867 212.537 294.276 211.831C294.684 211.125 295.254 210.527 295.94 210.085Z" fill="#FAFAFA"/>
<path d="M301.782 189.217C302.463 188.823 302.991 188.76 303.368 189.038C303.744 189.316 303.932 189.934 303.932 190.884C303.951 191.751 303.757 192.609 303.368 193.384C303.016 194.084 302.464 194.664 301.782 195.05L300.438 195.83V198.724C300.435 198.824 300.411 198.921 300.366 199.011C300.334 199.092 300.278 199.161 300.205 199.208L299.524 199.602C299.501 199.619 299.472 199.629 299.443 199.629C299.414 199.629 299.386 199.619 299.363 199.602C299.314 199.541 299.292 199.464 299.3 199.387V191.009C299.299 190.91 299.32 190.812 299.363 190.723C299.397 190.643 299.452 190.575 299.524 190.525L301.782 189.217ZM300.438 194.208L301.737 193.455C302.051 193.278 302.316 193.026 302.508 192.721C302.711 192.361 302.811 191.951 302.794 191.538C302.794 191.054 302.696 190.776 302.508 190.696C302.375 190.663 302.236 190.662 302.103 190.691C301.969 190.721 301.844 190.781 301.737 190.866L300.438 191.619V194.208Z" fill="#FAFAFA"/>
<path d="M307.686 185.804C307.776 185.75 307.848 185.75 307.892 185.804C307.95 185.884 307.99 185.975 308.009 186.072L310.079 193.079C310.079 193.079 310.079 193.133 310.079 193.16C310.077 193.26 310.053 193.358 310.007 193.446C309.975 193.527 309.919 193.596 309.846 193.644L309.236 193.993C309.129 194.056 309.048 194.065 309.004 193.993C308.96 193.948 308.929 193.892 308.914 193.832L308.547 192.604L305.859 194.145L305.5 195.794C305.475 195.883 305.442 195.97 305.402 196.054C305.357 196.163 305.274 196.252 305.169 196.305L304.559 196.654C304.537 196.673 304.508 196.683 304.479 196.683C304.449 196.683 304.421 196.673 304.398 196.654C304.351 196.596 304.329 196.522 304.335 196.448C304.33 196.415 304.33 196.382 304.335 196.349L306.396 186.959C306.421 186.821 306.46 186.686 306.513 186.556C306.556 186.462 306.628 186.384 306.719 186.332L307.686 185.804ZM308.152 191.233L307.256 188.07L306.36 192.3L308.152 191.233Z" fill="#FAFAFA"/>
<path d="M313.215 182.479C313.515 182.29 313.856 182.176 314.209 182.148C314.459 182.125 314.71 182.182 314.926 182.309C315.123 182.437 315.276 182.621 315.365 182.838C315.463 183.058 315.518 183.296 315.526 183.537C315.532 183.636 315.511 183.736 315.464 183.823C315.432 183.904 315.376 183.974 315.302 184.021L314.711 184.361C314.612 184.415 314.541 184.424 314.496 184.361C314.44 184.324 314.394 184.275 314.362 184.218C314.326 184.137 314.274 184.065 314.209 184.004C314.144 183.944 314.068 183.898 313.985 183.868C313.712 183.829 313.435 183.9 313.215 184.065C313.069 184.159 312.932 184.264 312.802 184.379C312.669 184.501 312.552 184.64 312.453 184.791C312.358 184.937 312.28 185.093 312.22 185.257C312.167 185.413 312.14 185.576 312.139 185.741C312.129 185.892 312.157 186.043 312.22 186.18C312.248 186.228 312.287 186.269 312.333 186.298C312.38 186.328 312.434 186.346 312.489 186.35C312.655 186.379 312.825 186.379 312.991 186.35L313.77 186.18C314.061 186.094 314.364 186.057 314.666 186.072C314.882 186.072 315.093 186.141 315.266 186.269C315.431 186.407 315.549 186.592 315.607 186.798C315.695 187.088 315.734 187.391 315.723 187.694C315.723 188.094 315.666 188.493 315.553 188.877C315.444 189.272 315.284 189.651 315.078 190.006C314.861 190.369 314.603 190.706 314.308 191.009C314.007 191.322 313.663 191.59 313.286 191.807C313.01 191.975 312.707 192.093 312.39 192.156C312.133 192.206 311.866 192.184 311.62 192.093C311.396 191.989 311.211 191.817 311.091 191.601C310.945 191.324 310.865 191.017 310.858 190.705C310.857 190.603 310.879 190.502 310.921 190.409C310.961 190.333 311.019 190.268 311.091 190.221L311.682 189.88C311.772 189.827 311.844 189.809 311.898 189.836C311.951 189.862 311.987 189.907 312.023 189.988C312.06 190.08 312.108 190.167 312.166 190.248C312.222 190.326 312.3 190.385 312.39 190.418C312.508 190.445 312.631 190.445 312.749 190.418C312.939 190.373 313.121 190.297 313.286 190.194C313.46 190.095 313.625 189.981 313.779 189.853C314.08 189.615 314.32 189.308 314.478 188.957C314.55 188.778 314.586 188.586 314.586 188.393C314.594 188.323 314.588 188.252 314.568 188.184C314.548 188.116 314.514 188.053 314.469 187.999C314.421 187.956 314.363 187.924 314.302 187.906C314.24 187.887 314.175 187.882 314.111 187.891C313.907 187.9 313.706 187.933 313.51 187.99C313.277 188.044 313.009 188.106 312.695 188.16C312.455 188.22 312.206 188.238 311.96 188.214C311.766 188.201 311.583 188.122 311.441 187.99C311.286 187.838 311.177 187.645 311.127 187.434C311.055 187.123 311.022 186.804 311.028 186.485C311.028 186.09 311.085 185.698 311.199 185.32C311.306 184.931 311.462 184.557 311.665 184.209C311.858 183.862 312.093 183.54 312.363 183.25C312.609 182.954 312.896 182.695 313.215 182.479Z" fill="#FAFAFA"/>
<path d="M319.101 179.093C319.399 178.898 319.741 178.78 320.096 178.752C320.346 178.731 320.596 178.787 320.813 178.913C321.004 179.044 321.154 179.228 321.243 179.442C321.341 179.663 321.395 179.9 321.404 180.141C321.415 180.241 321.393 180.341 321.341 180.428C321.31 180.509 321.253 180.578 321.18 180.625L320.589 180.965C320.499 181.019 320.428 181.037 320.374 180.965C320.317 180.929 320.273 180.876 320.248 180.813C320.166 180.656 320.029 180.534 319.863 180.472C319.729 180.453 319.593 180.46 319.462 180.494C319.332 180.528 319.209 180.588 319.101 180.67C318.952 180.761 318.811 180.866 318.68 180.983C318.55 181.106 318.436 181.244 318.34 181.395C318.241 181.539 318.163 181.696 318.107 181.861C318.051 182.017 318.021 182.18 318.017 182.345C318.007 182.496 318.034 182.647 318.098 182.784C318.125 182.832 318.164 182.873 318.211 182.903C318.258 182.932 318.311 182.95 318.367 182.954C318.533 182.983 318.702 182.983 318.868 182.954L319.648 182.784C319.939 182.703 320.242 182.667 320.544 182.677C320.76 182.675 320.971 182.744 321.144 182.874C321.308 183.014 321.429 183.197 321.494 183.402C321.573 183.694 321.609 183.996 321.601 184.298C321.601 184.699 321.543 185.097 321.431 185.481C321.322 185.876 321.162 186.256 320.956 186.61C320.74 186.977 320.482 187.317 320.186 187.622C319.883 187.927 319.543 188.192 319.173 188.411C318.897 188.578 318.594 188.697 318.277 188.76C318.022 188.809 317.759 188.788 317.516 188.698C317.287 188.597 317.098 188.424 316.978 188.205C316.831 187.929 316.754 187.621 316.754 187.309C316.743 187.209 316.765 187.108 316.817 187.022C316.848 186.941 316.905 186.872 316.978 186.825L317.569 186.485C317.659 186.431 317.74 186.413 317.784 186.44C317.815 186.454 317.843 186.475 317.865 186.501C317.886 186.528 317.902 186.559 317.91 186.592C317.95 186.683 317.998 186.769 318.053 186.852C318.112 186.931 318.193 186.99 318.286 187.022C318.404 187.049 318.527 187.049 318.644 187.022C318.835 186.977 319.016 186.902 319.182 186.798C319.352 186.697 319.513 186.583 319.666 186.458C319.823 186.335 319.962 186.19 320.078 186.028C320.194 185.873 320.29 185.704 320.365 185.526C320.437 185.346 320.473 185.155 320.472 184.961C320.481 184.891 320.475 184.82 320.455 184.752C320.435 184.684 320.401 184.621 320.356 184.567C320.307 184.524 320.25 184.493 320.188 184.474C320.127 184.456 320.061 184.451 319.997 184.46C319.797 184.472 319.599 184.505 319.406 184.558C319.173 184.612 318.895 184.675 318.591 184.728C318.348 184.788 318.096 184.807 317.847 184.782C317.653 184.772 317.468 184.692 317.327 184.558C317.175 184.406 317.07 184.213 317.023 184.003C316.943 183.696 316.907 183.379 316.915 183.062C316.918 182.665 316.976 182.27 317.085 181.888C317.196 181.501 317.353 181.128 317.551 180.777C317.745 180.428 317.983 180.106 318.259 179.818C318.501 179.534 318.785 179.289 319.101 179.093Z" fill="#FAFAFA"/>
<path d="M325.633 180.213L324.907 184.504C324.886 184.633 324.85 184.76 324.8 184.881C324.765 184.977 324.699 185.059 324.612 185.114L323.931 185.508C323.841 185.562 323.778 185.562 323.734 185.508C323.674 185.434 323.639 185.343 323.635 185.248L322.56 177.677C322.56 177.677 322.56 177.605 322.56 177.578C322.563 177.479 322.587 177.381 322.632 177.292C322.666 177.212 322.722 177.144 322.793 177.094L323.411 176.736C323.463 176.715 323.521 176.715 323.572 176.736C323.626 176.736 323.662 176.808 323.68 176.951L324.388 182.049L325.006 178.223C325.022 178.128 325.049 178.035 325.087 177.946C325.122 177.832 325.199 177.736 325.302 177.677L325.992 177.274C326.09 177.22 326.162 177.229 326.207 177.274C326.245 177.331 326.273 177.394 326.287 177.462L326.914 180.571L327.622 174.657C327.631 174.541 327.664 174.428 327.721 174.326C327.763 174.259 327.818 174.201 327.882 174.156L328.5 173.797C328.524 173.78 328.552 173.77 328.581 173.77C328.61 173.77 328.638 173.78 328.662 173.797C328.687 173.827 328.707 173.861 328.719 173.898C328.731 173.934 328.736 173.973 328.733 174.012C328.737 174.048 328.737 174.084 328.733 174.12L327.658 182.927C327.64 183.056 327.607 183.183 327.56 183.304C327.519 183.399 327.45 183.48 327.362 183.537L326.673 183.931C326.592 183.976 326.529 183.976 326.484 183.931C326.439 183.849 326.403 183.761 326.377 183.671L325.633 180.213Z" fill="#FAFAFA"/>
<path d="M329.826 176.413C329.846 175.917 329.906 175.422 330.006 174.935C330.108 174.459 330.264 173.996 330.472 173.555C330.669 173.127 330.922 172.726 331.224 172.363C331.531 172.004 331.898 171.701 332.308 171.467C332.624 171.253 332.994 171.132 333.375 171.118C333.659 171.121 333.932 171.233 334.136 171.432C334.353 171.676 334.51 171.967 334.593 172.283C334.709 172.694 334.772 173.119 334.781 173.546C334.781 173.707 334.781 173.887 334.781 174.084C334.781 174.281 334.781 174.487 334.781 174.702C334.781 174.917 334.781 175.123 334.781 175.32C334.781 175.517 334.781 175.706 334.781 175.876C334.762 176.37 334.702 176.861 334.602 177.345C334.499 177.82 334.345 178.282 334.145 178.725C333.942 179.152 333.686 179.553 333.384 179.917C333.077 180.273 332.714 180.576 332.308 180.813C331.985 181.025 331.611 181.146 331.224 181.162C331.085 181.165 330.946 181.14 330.817 181.087C330.687 181.035 330.57 180.957 330.472 180.858C330.238 180.607 330.077 180.297 330.006 179.962C329.899 179.548 329.839 179.125 329.826 178.698C329.826 178.537 329.826 178.358 329.826 178.161C329.826 177.963 329.826 177.757 329.826 177.542C329.826 177.327 329.826 177.13 329.826 176.924C329.826 176.718 329.818 176.575 329.826 176.413ZM333.643 174.272C333.663 174.053 333.639 173.832 333.571 173.622C333.503 173.413 333.394 173.219 333.249 173.053C333.016 172.847 332.694 172.856 332.308 173.053C331.89 173.299 331.558 173.669 331.359 174.111C331.105 174.633 330.97 175.205 330.964 175.786C330.964 176.118 330.964 176.485 330.964 176.888C330.964 177.291 330.964 177.65 330.964 177.972C330.944 178.192 330.969 178.413 331.037 178.622C331.105 178.831 331.214 179.025 331.359 179.191C331.592 179.388 331.914 179.37 332.308 179.146C332.72 178.899 333.047 178.534 333.249 178.098C333.503 177.579 333.638 177.009 333.643 176.431C333.643 176.091 333.643 175.723 333.643 175.32C333.643 174.917 333.652 174.595 333.643 174.272Z" fill="#FAFAFA"/>
<path d="M338.688 167.893C339.396 167.489 339.924 167.427 340.292 167.722C340.509 167.962 340.671 168.247 340.766 168.557C340.86 168.867 340.885 169.194 340.838 169.514C340.846 170.123 340.752 170.728 340.561 171.306C340.379 171.845 340.096 172.343 339.727 172.776L340.892 175.311C340.896 175.353 340.896 175.395 340.892 175.437C340.893 175.518 340.874 175.597 340.838 175.67C340.814 175.735 340.77 175.791 340.713 175.831L339.996 176.243C339.88 176.306 339.799 176.315 339.745 176.243C339.698 176.196 339.658 176.142 339.629 176.082L338.527 173.69L337.407 174.335V177.363C337.407 177.462 337.386 177.56 337.344 177.65C337.307 177.728 337.252 177.796 337.183 177.847L336.502 178.241C336.479 178.26 336.451 178.271 336.421 178.271C336.392 178.271 336.363 178.26 336.34 178.241C336.315 178.214 336.295 178.181 336.283 178.146C336.27 178.11 336.266 178.073 336.269 178.035V169.658C336.271 169.558 336.296 169.46 336.34 169.371C336.372 169.29 336.428 169.221 336.502 169.174L338.688 167.893ZM337.425 172.713L338.688 172.032C338.997 171.86 339.261 171.617 339.459 171.324C339.666 170.979 339.766 170.58 339.745 170.177C339.745 169.694 339.647 169.425 339.459 169.371C339.186 169.334 338.909 169.405 338.688 169.568L337.469 170.267L337.425 172.713Z" fill="#FAFAFA"/>
<path d="M344.691 164.443C345.016 164.231 345.389 164.102 345.775 164.067C346.056 164.056 346.329 164.156 346.537 164.344C346.774 164.594 346.938 164.904 347.012 165.24C347.132 165.685 347.198 166.142 347.209 166.602C347.209 167.23 347.209 167.875 347.209 168.529C347.191 169.062 347.125 169.593 347.012 170.115C346.909 170.599 346.753 171.071 346.546 171.521C346.346 171.935 346.093 172.32 345.793 172.668C345.494 173.024 345.136 173.327 344.736 173.564L342.612 174.72C342.59 174.739 342.561 174.749 342.532 174.749C342.502 174.749 342.474 174.739 342.451 174.72C342.425 174.693 342.405 174.661 342.393 174.625C342.38 174.589 342.376 174.551 342.379 174.514V166.136C342.382 166.037 342.407 165.939 342.451 165.85C342.483 165.769 342.539 165.7 342.612 165.653L344.691 164.443ZM346.071 167.23C346.067 166.987 346.031 166.746 345.963 166.513C345.922 166.336 345.832 166.175 345.704 166.047C345.647 165.991 345.58 165.946 345.506 165.917C345.432 165.888 345.353 165.874 345.274 165.877C345.049 165.892 344.833 165.966 344.646 166.092L343.517 166.737V172.579L344.691 171.907C344.918 171.774 345.121 171.605 345.291 171.405C345.458 171.208 345.6 170.992 345.713 170.76C345.824 170.513 345.908 170.254 345.963 169.989C346.026 169.712 346.062 169.43 346.071 169.147C346.098 168.493 346.098 167.857 346.071 167.23Z" fill="#FAFAFA"/>
<path d="M221.653 34.3974C223.199 34.7415 224.689 35.3026 226.079 36.0639C227.409 36.7792 228.602 37.7258 229.6 38.8595C230.555 39.9499 231.264 41.2335 231.679 42.6227C232.102 44.1097 232.132 45.6808 231.768 47.1833C231.528 48.3745 231.056 49.507 230.38 50.5164C229.762 51.3796 229.026 52.1517 228.193 52.8102C227.376 53.445 226.503 54.0057 225.586 54.4857L223.005 55.8566C222.228 56.262 221.49 56.7389 220.801 57.2812C220.178 57.7593 219.7 58.4016 219.421 59.1359C219.285 59.4715 219.059 59.7629 218.767 59.9782C218.63 60.0852 218.469 60.1595 218.298 60.1952C218.128 60.2309 217.951 60.2271 217.782 60.1843L213.983 59.342C213.8 59.3037 213.626 59.2292 213.473 59.1231C213.319 59.0169 213.188 58.8812 213.087 58.7238C212.98 58.5774 212.908 58.4079 212.879 58.2289C212.849 58.0499 212.862 57.8664 212.917 57.6934C213.222 56.5168 213.762 55.4138 214.502 54.4499C215.178 53.5972 215.961 52.8353 216.832 52.183C217.68 51.562 218.58 51.0135 219.52 50.5433C220.416 50.0863 221.312 49.6473 222.092 49.2083C222.817 48.8185 223.498 48.353 224.125 47.8195C224.676 47.3589 225.057 46.7285 225.21 46.0275C225.352 45.4187 225.345 44.7845 225.189 44.1791C225.033 43.5736 224.733 43.015 224.314 42.551C223.266 41.4071 221.865 40.6469 220.335 40.3916C217.504 39.7644 215.115 40.7172 213.167 43.2499C212.979 43.5263 212.743 43.7662 212.469 43.9577C212.159 44.111 211.802 44.1367 211.474 44.0294L207.433 43.1334C207.145 43.0777 206.89 42.9102 206.725 42.6675C206.637 42.5378 206.578 42.3906 206.551 42.236C206.525 42.0814 206.532 41.923 206.573 41.7715C206.916 40.5264 207.556 39.3829 208.437 38.4383C209.43 37.3429 210.61 36.4328 211.922 35.7503C213.356 34.9998 214.902 34.4855 216.501 34.2271C218.213 33.9487 219.963 34.0065 221.653 34.3974ZM217.361 63.2307C217.716 63.3141 218.025 63.5333 218.221 63.8414C218.417 64.1495 218.484 64.522 218.409 64.8793L217.441 69.2697C217.409 69.4535 217.337 69.6284 217.232 69.7828C217.127 69.9372 216.991 70.0677 216.832 70.1657C216.682 70.2691 216.512 70.3401 216.333 70.374C216.154 70.408 215.97 70.4041 215.793 70.3628L211.456 69.3683C211.272 69.3372 211.096 69.2666 210.941 69.1615C210.787 69.0563 210.657 68.919 210.56 68.759C210.46 68.6076 210.391 68.4374 210.359 68.2587C210.326 68.08 210.331 67.8966 210.372 67.7196L211.349 63.3292C211.432 62.9733 211.651 62.6639 211.959 62.4665C212.266 62.2692 212.639 62.1994 212.997 62.2719L217.361 63.2307Z" fill="#0E4FDA"/>
<path d="M226.437 76.4287C227.516 76.2557 228.614 76.2345 229.699 76.366C230.735 76.4892 231.742 76.7924 232.673 77.262C233.561 77.7224 234.342 78.3633 234.967 79.1436C235.529 79.9073 235.925 80.7803 236.128 81.7062C236.332 82.6322 236.339 83.5906 236.15 84.5196C235.979 85.2339 235.704 85.9191 235.334 86.5535C234.978 87.1706 234.564 87.7526 234.098 88.2918C233.641 88.8294 233.202 89.3401 232.799 89.8329C232.404 90.292 232.053 90.787 231.75 91.3113C231.467 91.7709 231.323 92.3035 231.338 92.8435C231.33 93.0958 231.26 93.3422 231.132 93.5603C231.067 93.6607 230.982 93.7462 230.882 93.8111C230.781 93.876 230.668 93.9188 230.55 93.9366L227.862 94.3667C227.736 94.3895 227.607 94.3869 227.483 94.3592C227.358 94.3315 227.24 94.2792 227.136 94.2054C227.03 94.1388 226.942 94.0481 226.878 93.9406C226.814 93.8331 226.777 93.7119 226.769 93.5871C226.656 92.7534 226.717 91.9053 226.948 91.0963C227.159 90.38 227.46 89.6935 227.844 89.0534C228.221 88.439 228.653 87.8602 229.134 87.3241C229.609 86.7865 230.03 86.2847 230.442 85.8009C230.81 85.3688 231.129 84.897 231.392 84.3942C231.625 83.9614 231.71 83.4641 231.634 82.9785C231.567 82.551 231.397 82.1462 231.14 81.7983C230.882 81.4504 230.545 81.1699 230.156 80.9804C229.192 80.5151 228.102 80.3827 227.055 80.6041C226.108 80.7427 225.226 81.1709 224.532 81.8302C223.837 82.4895 223.364 83.3476 223.176 84.2867C223.123 84.5125 223.032 84.7277 222.907 84.9228C222.747 85.0929 222.53 85.1982 222.298 85.2185L219.466 85.6755C219.267 85.7135 219.061 85.6717 218.893 85.559C218.807 85.4997 218.734 85.4227 218.68 85.333C218.626 85.2434 218.592 85.1433 218.579 85.0393C218.495 84.1502 218.634 83.2541 218.982 82.4319C219.337 81.4753 219.859 80.5893 220.524 79.8156C221.252 78.9684 222.111 78.2425 223.068 77.6652C224.101 77.0391 225.245 76.6192 226.437 76.4287ZM231.061 96.0063C231.184 95.9868 231.31 95.9917 231.431 96.0209C231.553 96.0502 231.667 96.103 231.768 96.1766C231.874 96.246 231.964 96.337 232.032 96.4435C232.1 96.5501 232.144 96.6698 232.163 96.7948L232.664 99.8681C232.703 100.117 232.642 100.372 232.495 100.577C232.347 100.781 232.125 100.919 231.876 100.961L228.874 101.454C228.625 101.493 228.371 101.431 228.166 101.284C228.063 101.213 227.975 101.122 227.908 101.016C227.842 100.909 227.799 100.79 227.781 100.666L227.279 97.5923C227.257 97.4689 227.26 97.3422 227.289 97.2203C227.319 97.0983 227.373 96.9839 227.45 96.8844C227.52 96.7805 227.611 96.6925 227.718 96.6261C227.824 96.5597 227.944 96.5165 228.068 96.4991L231.061 96.0063Z" fill="#0E4FDA"/>
<g opacity="0.2">
<path opacity="0.2" d="M226.437 76.4287C227.516 76.2557 228.614 76.2345 229.699 76.366C230.735 76.4892 231.742 76.7924 232.673 77.262C233.561 77.7224 234.342 78.3633 234.967 79.1436C235.529 79.9073 235.925 80.7803 236.128 81.7062C236.332 82.6322 236.339 83.5906 236.15 84.5196C235.979 85.2339 235.704 85.9191 235.334 86.5535C234.978 87.1706 234.564 87.7526 234.098 88.2918C233.641 88.8294 233.202 89.3401 232.799 89.8329C232.404 90.292 232.053 90.787 231.75 91.3113C231.467 91.7709 231.323 92.3035 231.338 92.8435C231.33 93.0958 231.26 93.3422 231.132 93.5603C231.067 93.6607 230.982 93.7462 230.882 93.8111C230.781 93.876 230.668 93.9188 230.55 93.9366L227.862 94.3667C227.736 94.3895 227.607 94.3869 227.483 94.3592C227.358 94.3315 227.24 94.2792 227.136 94.2054C227.03 94.1388 226.942 94.0481 226.878 93.9406C226.814 93.8331 226.777 93.7119 226.769 93.5871C226.656 92.7534 226.717 91.9053 226.948 91.0963C227.159 90.38 227.46 89.6935 227.844 89.0534C228.221 88.439 228.653 87.8602 229.134 87.3241C229.609 86.7865 230.03 86.2847 230.442 85.8009C230.81 85.3688 231.129 84.897 231.392 84.3942C231.625 83.9614 231.71 83.4641 231.634 82.9785C231.567 82.551 231.397 82.1462 231.14 81.7983C230.882 81.4504 230.545 81.1699 230.156 80.9804C229.192 80.5151 228.102 80.3827 227.055 80.6041C226.108 80.7427 225.226 81.1709 224.532 81.8302C223.837 82.4895 223.364 83.3476 223.176 84.2867C223.123 84.5125 223.032 84.7277 222.907 84.9228C222.747 85.0929 222.53 85.1982 222.298 85.2185L219.466 85.6755C219.267 85.7135 219.061 85.6717 218.893 85.559C218.807 85.4997 218.734 85.4227 218.68 85.333C218.626 85.2434 218.592 85.1433 218.579 85.0393C218.495 84.1502 218.634 83.2541 218.982 82.4319C219.337 81.4753 219.859 80.5893 220.524 79.8156C221.252 78.9684 222.111 78.2425 223.068 77.6652C224.101 77.0391 225.245 76.6192 226.437 76.4287ZM231.061 96.0063C231.184 95.9868 231.31 95.9917 231.431 96.0209C231.553 96.0502 231.667 96.103 231.768 96.1766C231.874 96.246 231.964 96.337 232.032 96.4435C232.1 96.5501 232.144 96.6698 232.163 96.7948L232.664 99.8681C232.703 100.117 232.642 100.372 232.495 100.577C232.347 100.781 232.125 100.919 231.876 100.961L228.874 101.454C228.625 101.493 228.371 101.431 228.166 101.284C228.063 101.213 227.975 101.122 227.908 101.016C227.842 100.909 227.799 100.79 227.781 100.666L227.279 97.5923C227.257 97.4689 227.26 97.3422 227.289 97.2203C227.319 97.0983 227.373 96.9839 227.45 96.8844C227.52 96.7805 227.611 96.6925 227.718 96.6261C227.824 96.5597 227.944 96.5165 228.068 96.4991L231.061 96.0063Z" fill="black"/>
</g>
<path d="M251.776 81.2581C251.898 81.3431 252.002 81.452 252.08 81.5784C252.159 81.7047 252.211 81.8457 252.233 81.9929C252.261 82.1386 252.259 82.2887 252.227 82.4337C252.195 82.5786 252.133 82.7153 252.045 82.8351L249.912 85.8367C249.827 85.9589 249.718 86.0624 249.592 86.141C249.466 86.2195 249.325 86.2715 249.178 86.2937C249.032 86.3222 248.882 86.3202 248.737 86.2878C248.592 86.2554 248.455 86.1933 248.335 86.1055L245.396 84.0178C245.274 83.934 245.171 83.8252 245.094 83.6985C245.016 83.5719 244.967 83.4303 244.948 83.2831C244.92 83.1373 244.922 82.9872 244.954 82.8423C244.987 82.6973 245.049 82.5606 245.137 82.4409L247.296 79.4393C247.471 79.196 247.734 79.0313 248.029 78.981C248.324 78.9307 248.628 78.9988 248.873 79.1705L251.776 81.2581ZM264.177 60.9279C265.248 61.6789 266.202 62.5848 267.008 63.6159C267.794 64.5751 268.401 65.6676 268.8 66.8415C269.172 67.9664 269.297 69.1582 269.167 70.3359C269.015 71.5917 268.54 72.7866 267.787 73.8034C267.228 74.6256 266.509 75.3265 265.673 75.8642C264.937 76.3256 264.137 76.6759 263.299 76.9036C262.482 77.117 261.649 77.2609 260.808 77.3337L258.424 77.5487C257.71 77.6058 257.002 77.7288 256.31 77.9161C255.671 78.061 255.087 78.3841 254.625 78.8479C254.417 79.0598 254.153 79.2088 253.864 79.278C253.726 79.3174 253.581 79.3234 253.441 79.2953C253.301 79.2673 253.169 79.206 253.057 79.1167L250.459 77.2709C250.211 77.0936 250.04 76.8271 249.984 76.5273C249.95 76.3819 249.952 76.2308 249.987 76.086C250.023 75.9412 250.093 75.8069 250.19 75.694C250.797 74.9064 251.556 74.2483 252.421 73.7586C253.2 73.3331 254.032 73.0108 254.894 72.7999C255.726 72.5979 256.575 72.469 257.43 72.4146C258.272 72.3609 259.06 72.2981 259.795 72.2265C260.468 72.1671 261.131 72.0349 261.775 71.8322C262.338 71.6447 262.824 71.2761 263.155 70.7839C263.455 70.3683 263.649 69.8865 263.723 69.3795C263.796 68.8725 263.746 68.3553 263.576 67.8719C263.152 66.6777 262.342 65.6592 261.274 64.9778C259.338 63.598 257.227 63.5532 254.939 64.8434C254.709 64.99 254.454 65.0932 254.186 65.1481C254.047 65.1578 253.907 65.1398 253.775 65.0952C253.643 65.0506 253.521 64.9802 253.416 64.8882L250.656 62.926C250.556 62.8596 250.47 62.7739 250.404 62.6739C250.338 62.5738 250.293 62.4615 250.271 62.3436C250.249 62.2216 250.253 62.0966 250.283 61.9763C250.312 61.856 250.366 61.7431 250.441 61.6447C251.092 60.8104 251.938 60.1489 252.905 59.7183C254.003 59.2208 255.179 58.9176 256.381 58.8223C257.704 58.7118 259.035 58.8177 260.324 59.1359C261.715 59.471 263.024 60.0802 264.177 60.9279Z" fill="#0E4FDA"/>
<g opacity="0.6">
<path opacity="0.6" d="M251.776 81.2581C251.898 81.3431 252.002 81.452 252.08 81.5784C252.159 81.7047 252.211 81.8457 252.233 81.9929C252.261 82.1386 252.259 82.2887 252.227 82.4337C252.195 82.5786 252.133 82.7153 252.045 82.8351L249.912 85.8367C249.827 85.9589 249.718 86.0624 249.592 86.141C249.466 86.2195 249.325 86.2715 249.178 86.2937C249.032 86.3222 248.882 86.3202 248.737 86.2878C248.592 86.2554 248.455 86.1933 248.335 86.1055L245.396 84.0178C245.274 83.934 245.171 83.8252 245.094 83.6985C245.016 83.5719 244.967 83.4303 244.948 83.2831C244.92 83.1373 244.922 82.9872 244.954 82.8423C244.987 82.6973 245.049 82.5606 245.137 82.4409L247.296 79.4393C247.471 79.196 247.734 79.0313 248.029 78.981C248.324 78.9307 248.628 78.9988 248.873 79.1705L251.776 81.2581ZM264.177 60.9279C265.248 61.6789 266.202 62.5848 267.008 63.6159C267.794 64.5751 268.401 65.6676 268.8 66.8415C269.172 67.9664 269.297 69.1582 269.167 70.3359C269.015 71.5917 268.54 72.7866 267.787 73.8034C267.228 74.6256 266.509 75.3265 265.673 75.8642C264.937 76.3256 264.137 76.6759 263.299 76.9036C262.482 77.117 261.649 77.2609 260.808 77.3337L258.424 77.5487C257.71 77.6058 257.002 77.7288 256.31 77.9161C255.671 78.061 255.087 78.3841 254.625 78.8479C254.417 79.0598 254.153 79.2088 253.864 79.278C253.726 79.3174 253.581 79.3234 253.441 79.2953C253.301 79.2673 253.169 79.206 253.057 79.1167L250.459 77.2709C250.211 77.0936 250.04 76.8271 249.984 76.5273C249.95 76.3819 249.952 76.2308 249.987 76.086C250.023 75.9412 250.093 75.8069 250.19 75.694C250.797 74.9064 251.556 74.2483 252.421 73.7586C253.2 73.3331 254.032 73.0108 254.894 72.7999C255.726 72.5979 256.575 72.469 257.43 72.4146C258.272 72.3609 259.06 72.2981 259.795 72.2265C260.468 72.1671 261.131 72.0349 261.775 71.8322C262.338 71.6447 262.824 71.2761 263.155 70.7839C263.455 70.3683 263.649 69.8865 263.723 69.3795C263.796 68.8725 263.746 68.3553 263.576 67.8719C263.152 66.6777 262.342 65.6592 261.274 64.9778C259.338 63.598 257.227 63.5532 254.939 64.8434C254.709 64.99 254.454 65.0932 254.186 65.1481C254.047 65.1578 253.907 65.1398 253.775 65.0952C253.643 65.0506 253.521 64.9802 253.416 64.8882L250.656 62.926C250.556 62.8596 250.47 62.7739 250.404 62.6739C250.338 62.5738 250.293 62.4615 250.271 62.3436C250.249 62.2216 250.253 62.0966 250.283 61.9763C250.312 61.856 250.366 61.7431 250.441 61.6447C251.092 60.8104 251.938 60.1489 252.905 59.7183C254.003 59.2208 255.179 58.9176 256.381 58.8223C257.704 58.7118 259.035 58.8177 260.324 59.1359C261.715 59.471 263.024 60.0802 264.177 60.9279Z" fill="white"/>
</g>
<path d="M185.051 160.572H153.216V83.4445C153.216 76.7456 155.877 70.3211 160.614 65.5842C165.351 60.8474 171.775 58.1863 178.474 58.1863H181.413C188.112 58.1863 194.537 60.8474 199.273 65.5842C204.01 70.3211 206.671 76.7456 206.671 83.4445V138.997C206.66 144.723 204.376 150.211 200.323 154.256C196.27 158.3 190.777 160.572 185.051 160.572Z" fill="#263238"/>
<path d="M150.116 346.25C149.553 349.446 149.253 352.682 149.22 355.927C149.103 361.805 148.028 363.892 147.885 368.713C147.715 374.223 148.673 376.284 150.904 379.384C153.135 382.485 158.968 385.289 161.495 380.056C164.022 374.824 163.654 371.392 162.857 365.989C162.042 360.398 161.961 357.307 161.459 353.051C161.047 349.297 160.563 346.438 160.563 346.438L150.116 346.25Z" fill="#263238"/>
<path d="M166.799 307.211L147.446 306.862C147.733 319.782 149.784 334.127 150.134 346.286C150.205 348.571 150.08 364.018 150.94 368.686C152.239 375.747 160.608 374.788 161.056 370.568C161.504 366.347 160.518 348.311 160.545 346.447C160.465 338.67 164.129 325.544 166.02 311.584C166.101 310.912 166.71 307.883 166.799 307.211Z" fill="#FFA8A7"/>
<path d="M191.663 336.197C191.663 336.197 190.902 335.785 190.767 336.6C190.579 337.568 190.293 339.566 189.871 341.161C189.316 343.374 188.85 347.021 189.181 348.831C189.513 350.641 193.724 352.952 196.457 353.795C199.825 354.834 202.897 356.662 205.417 359.126C208.105 361.67 213.956 364.072 217.961 364.045C222.665 364.045 225.944 362.477 227.494 359.959C229.045 357.441 226.079 357.137 220.703 353.687L216.536 350.999C208.015 345.435 204.888 342.46 202.496 336.896L191.663 336.197Z" fill="#263238"/>
<path d="M202.568 332.748C202.424 328.751 205.184 294.784 205.184 294.784L186.807 303.162C190.74 326.655 191.583 332.201 191.645 336.045C191.565 336.367 191.532 336.699 191.547 337.03C191.547 341.591 196.717 344.055 200.731 347.101C204.143 349.775 207.779 352.149 211.599 354.198C214.52 355.658 220.452 355.793 221.187 353.92C216.294 350.184 209.18 344.593 205.291 340.328C203.392 338.321 202.711 336.753 202.568 332.748Z" fill="#FFA8A7"/>
<path d="M155.375 181.135C148.315 196.627 148.315 208.616 149.489 228.39C150.528 246.534 152.257 262.528 152.257 262.528C151.989 265.745 147.517 272.026 146.935 286.254C146.397 299.551 147.831 316.458 147.831 316.458C147.831 316.458 157.875 322.022 165.303 316.405C165.303 316.405 172.471 282.186 174.568 265.539C176.36 251.014 179.585 232.458 179.585 232.458L186.368 265.44C184.904 270.12 183.843 274.916 183.196 279.776C182.246 289.569 187.73 308.797 187.73 308.797C187.73 308.797 198.106 311.889 204.44 306.271C204.44 306.271 206.806 275.009 207.693 263.218C208.876 247.421 206.385 204.664 204.44 182.022L155.375 181.135Z" fill="#455A64"/>
<path d="M179.603 232.431L182.39 207.576C182.39 207.576 194.88 205.91 200.543 200.588C198.922 203.123 196.763 205.271 194.219 206.878C191.674 208.486 188.808 209.513 185.822 209.888L181.79 233.014L186.368 265.44L179.603 232.431Z" fill="#263238"/>
<path d="M230.182 175.025C230.698 170.489 230.926 165.925 230.863 161.361C230.586 157.418 229.878 156.773 224.367 149.793C216.93 140.358 210.578 131.873 203.858 123.442C199.055 117.421 194.002 116.498 189.092 116.767C185.651 116.955 192.371 133.504 195.749 143.297L215.04 164.067C215.638 164.886 215.912 165.898 215.81 166.907L214.646 184.576L220.425 192.317C220.425 192.317 229.179 184.773 230.182 175.025Z" fill="#FFA8A7"/>
<path d="M170.491 117.304C166.755 117.564 159.963 118.2 159.963 118.2C156.047 120.387 155.053 122.187 154.327 127.384C154.013 129.606 155.823 135.511 157.373 143.907L160.312 159.47L159.99 167.194C158.467 171.907 155.017 177.757 151.971 186.386C166.934 194.737 179.478 195.05 190.857 193.554C199.53 192.434 204.127 190.337 205.659 188.259C205.336 179.738 204.763 174.469 204.584 165.563C204.521 161.827 204.745 158.045 204.897 153.745C210.712 148.96 210.784 141.003 207.585 135.825C200.211 123.881 193.034 116.363 188.285 116.749L170.491 117.304Z" fill="#0E4FDA"/>
<path opacity="0.6" d="M170.491 117.304C166.755 117.564 159.963 118.2 159.963 118.2C156.047 120.387 155.053 122.187 154.327 127.384C154.013 129.606 155.823 135.511 157.373 143.907L160.312 159.47L159.99 167.194C158.467 171.907 155.017 177.757 151.971 186.386C166.934 194.737 179.478 195.05 190.857 193.554C199.53 192.434 204.127 190.337 205.659 188.259C205.336 179.738 204.763 174.469 204.584 165.563C204.521 161.827 204.745 158.045 204.897 153.745C210.712 148.96 210.784 141.003 207.585 135.825C200.211 123.881 193.034 116.363 188.285 116.749L170.491 117.304Z" fill="white"/>
<path opacity="0.1" d="M193.312 153.861C193.312 153.861 186.485 159.165 178.68 156.397C176.489 155.706 174.513 154.462 172.943 152.784C171.373 151.106 170.263 149.051 169.72 146.819C169.72 146.819 168.896 155.734 178.725 158.771C188.25 161.701 193.312 153.861 193.312 153.861Z" fill="black"/>
<path d="M202.577 92.8346C202.281 105.773 198.097 108.963 195.982 109.859C193.868 110.755 189.818 110.217 185.875 109.563V117.376C185.875 117.376 190.427 122.143 190.086 125.7C189.746 129.257 182.918 129.66 177.829 126.175C175.021 124.246 172.481 121.953 170.276 119.356C169.852 118.855 169.621 118.22 169.622 117.564V99.2858C169.622 99.2858 167.462 101.571 163.645 98.9543C162.822 98.4286 162.117 97.7374 161.575 96.9245C161.033 96.1117 160.666 95.1949 160.497 94.2325C160.329 93.2702 160.362 92.2833 160.596 91.3346C160.829 90.3859 161.258 89.4961 161.853 88.7219C163.52 86.7597 167.749 86.6253 169.774 89.6179C170.921 91.849 171.073 94.0979 172.355 93.2019C175.759 90.7469 173.932 85.1379 178.044 82.4499C179.394 81.7455 180.796 81.1464 182.237 80.6579C189.576 78.1222 195.937 75.9898 197.469 70.9722C200.355 72.6208 202.935 77.5757 202.577 92.8346Z" fill="#FFA8A7"/>
<path d="M188.106 104.393C189.046 104.393 189.809 103.631 189.809 102.691C189.809 101.75 189.046 100.988 188.106 100.988C187.166 100.988 186.404 101.75 186.404 102.691C186.404 103.631 187.166 104.393 188.106 104.393Z" fill="#B16668"/>
<path d="M186.977 90.8724C186.977 91.2229 186.874 91.5656 186.68 91.858C186.487 92.1505 186.212 92.3798 185.89 92.5177C185.568 92.6555 185.212 92.6959 184.867 92.6337C184.522 92.5715 184.203 92.4095 183.949 92.1678C183.696 91.926 183.518 91.6152 183.439 91.2737C183.36 90.9322 183.383 90.575 183.505 90.2464C183.627 89.9178 183.843 89.6322 184.126 89.425C184.408 89.2177 184.746 89.0979 185.096 89.0804C185.338 89.0682 185.581 89.1056 185.809 89.1902C186.037 89.2748 186.245 89.4048 186.421 89.5725C186.597 89.7401 186.737 89.9418 186.833 90.1652C186.928 90.3887 186.978 90.6293 186.977 90.8724Z" fill="#263238"/>
<path d="M200.552 91.0515C200.57 91.2707 200.544 91.4914 200.477 91.7007C200.409 91.91 200.3 92.1036 200.157 92.2704C200.013 92.4372 199.838 92.5738 199.641 92.6722C199.444 92.7706 199.23 92.8288 199.011 92.8435C198.789 92.864 198.566 92.8371 198.355 92.7646C198.145 92.6922 197.953 92.5758 197.791 92.4233C197.629 92.2707 197.501 92.0855 197.417 91.8799C197.332 91.6743 197.292 91.453 197.299 91.2307C197.276 91.0099 197.298 90.7866 197.364 90.5747C197.431 90.3627 197.539 90.1666 197.684 89.9981C197.829 89.8297 198.006 89.6926 198.206 89.5953C198.406 89.4979 198.623 89.4423 198.845 89.432C199.067 89.4216 199.288 89.4566 199.496 89.5349C199.704 89.6132 199.893 89.733 200.053 89.8872C200.213 90.0414 200.34 90.2265 200.425 90.4313C200.511 90.6362 200.554 90.8564 200.552 91.0784V91.0515Z" fill="#263238"/>
<path d="M184.675 95.4778C183.129 95.4778 181.647 94.8645 180.553 93.7725C179.46 92.6806 178.844 91.1992 178.842 89.6538C178.842 85.6935 182.927 85.6935 184.675 85.6935C186.422 85.6935 190.499 85.6935 190.499 89.6538C190.496 91.1977 189.882 92.6777 188.79 93.7694C187.698 94.8611 186.218 95.4754 184.675 95.4778ZM184.675 86.6074C181.091 86.6074 179.764 87.5034 179.764 89.6538C179.764 90.9608 180.284 92.2142 181.208 93.1384C182.132 94.0626 183.385 94.5818 184.692 94.5818C185.999 94.5818 187.253 94.0626 188.177 93.1384C189.101 92.2142 189.62 90.9608 189.62 89.6538C189.585 87.4586 188.205 86.6074 184.675 86.6074Z" fill="#455A64"/>
<path d="M199.467 95.4778C197.922 95.4778 196.44 94.8645 195.346 93.7725C194.252 92.6806 193.637 91.1992 193.635 89.6538C193.635 85.6935 197.72 85.6935 199.467 85.6935C201.215 85.6935 205.291 85.6935 205.291 89.6538C205.289 91.1977 204.675 92.6777 203.583 93.7694C202.491 94.8611 201.011 95.4754 199.467 95.4778ZM199.467 86.6074C195.937 86.6074 194.557 87.5034 194.557 89.6538C194.557 90.9608 195.077 92.2142 196.001 93.1384C196.925 94.0626 198.178 94.5818 199.485 94.5818C200.792 94.5818 202.046 94.0626 202.97 93.1384C203.894 92.2142 204.413 90.9608 204.413 89.6538C204.378 87.4586 202.998 86.6074 199.467 86.6074Z" fill="#455A64"/>
<path d="M191.404 87.7722L191.69 98.6586L197.416 96.8845L191.404 87.7722Z" fill="#F28F8F"/>
<path d="M185.866 109.59C181.709 109.043 173.152 106.588 171.817 103.201C172.354 104.913 173.401 106.42 174.818 107.52C177.372 109.715 185.866 112.179 185.866 112.179V109.59Z" fill="#F28F8F"/>
<path d="M186.072 82.4857L182.273 84.8064C181.974 84.2848 181.887 83.668 182.03 83.084C182.174 82.5 182.537 81.9937 183.044 81.6704C183.294 81.5183 183.573 81.4186 183.864 81.3773C184.154 81.336 184.449 81.3541 184.732 81.4303C185.016 81.5065 185.28 81.6393 185.51 81.8207C185.741 82.0021 185.932 82.2283 186.072 82.4857Z" fill="#263238"/>
<path d="M201.528 85.0662L197.299 83.5878C197.381 83.3076 197.519 83.047 197.706 82.8221C197.892 82.5973 198.122 82.4129 198.382 82.2803C198.642 82.1477 198.927 82.0697 199.218 82.0511C199.51 82.0325 199.802 82.0737 200.077 82.1722C200.644 82.376 201.111 82.7902 201.381 83.3289C201.651 83.8677 201.704 84.4897 201.528 85.0662Z" fill="#263238"/>
<path d="M190.042 90.1197C189.981 90.1197 189.921 90.1076 189.865 90.0841C189.809 90.0606 189.758 90.0261 189.715 89.9827C189.673 89.9393 189.639 89.8879 189.617 89.8314C189.594 89.7749 189.583 89.7145 189.585 89.6538C189.585 88.9101 191.054 88.4263 192.38 88.4263C193.706 88.4263 194.557 88.9101 194.557 89.6538C194.53 89.7511 194.471 89.8368 194.39 89.8978C194.309 89.9588 194.211 89.9917 194.109 89.9917C194.008 89.9917 193.91 89.9588 193.829 89.8978C193.748 89.8368 193.689 89.7511 193.661 89.6538C193.661 89.5642 193.205 89.3402 192.407 89.3402C191.765 89.3265 191.126 89.436 190.525 89.6628C190.526 89.7251 190.513 89.7868 190.488 89.8441C190.464 89.9013 190.428 89.953 190.382 89.9958C190.337 90.0386 190.283 90.0716 190.225 90.093C190.166 90.1143 190.104 90.1234 190.042 90.1197Z" fill="#455A64"/>
<path d="M179.317 89.7255H179.263L169.021 88.8295C168.543 88.3551 167.973 87.9832 167.346 87.7363L179.37 88.8474C179.491 88.8631 179.6 88.9253 179.676 89.0207C179.751 89.1161 179.786 89.2372 179.773 89.3581C179.752 89.4632 179.695 89.5576 179.612 89.6247C179.528 89.6919 179.424 89.7275 179.317 89.7255Z" fill="#455A64"/>
<path d="M137.267 100.406C140.618 95.9258 142.903 92.5478 145.958 88.7578C147.697 86.5805 148.808 85.0215 150.438 82.7904C151.585 81.2493 152.23 79.9501 153.539 79.4752C154.952 78.8961 156.226 78.0225 157.275 76.9126C157.92 76.1991 158.518 75.4449 159.067 74.6547C160.987 72.0698 163.268 69.7736 165.841 67.8362C168.529 65.8112 171.53 64.2522 174.299 62.3258C175.948 61.1699 177.713 59.2525 175.706 57.4605C175.09 56.9421 174.353 56.5876 173.564 56.4301C168.681 55.3728 164.434 57.0483 159.658 58.2669C157.584 58.7846 155.555 59.4709 153.592 60.3187C152.627 60.7005 151.722 61.2196 150.904 61.8599C149.762 63.0119 148.825 64.3514 148.136 65.8202C146.048 69.5475 141.568 72.8806 138.432 75.8285C134.767 79.2781 131.488 82.441 127.304 86.24C123.54 89.6717 119.858 92.8256 116.408 96.5709C113.55 99.6621 114.616 102.081 114.993 102.924C117.322 107.708 119.93 109.428 123.057 112.394C128.433 117.528 147.025 132.303 153.18 137.187C154.503 138.225 155.541 139.581 156.2 141.129L157.382 143.862C164.407 145.152 169.093 134.606 163.278 121.91C162.315 119.857 160.844 118.083 159.004 116.758C151.657 111.409 137.267 100.406 137.267 100.406Z" fill="#FFA8A7"/>
<path d="M137.267 100.406C135.031 103.156 132.052 105.206 128.683 106.31C128.683 106.31 133.163 107.457 139.301 101.947L137.267 100.406Z" fill="#F28F8F"/>
<path d="M228.355 165.679L227.208 164.694C227.036 164.581 226.841 164.51 226.637 164.487C226.433 164.463 226.226 164.488 226.034 164.559L213.589 167.946C212.962 168.155 212.387 168.497 211.905 168.949C211.422 169.4 211.043 169.951 210.793 170.563L201.833 196.394C201.725 196.605 201.683 196.843 201.712 197.078C201.74 197.312 201.839 197.533 201.994 197.711L203.177 198.733C203.349 198.851 203.548 198.927 203.755 198.951C203.963 198.976 204.173 198.951 204.369 198.876L216.832 195.489C217.459 195.28 218.033 194.938 218.516 194.487C218.998 194.035 219.378 193.485 219.628 192.873C221.42 187.793 226.796 172.122 228.588 167.041C228.803 166.405 228.695 165.921 228.355 165.679Z" fill="#455A64"/>
<path d="M203.007 197.389L211.967 171.557C212.216 170.946 212.595 170.396 213.078 169.946C213.56 169.496 214.135 169.156 214.762 168.95L227.199 165.563C228.355 165.249 228.991 165.912 228.579 167.041C226.787 172.122 221.411 187.793 219.619 192.873C219.369 193.485 218.989 194.035 218.507 194.487C218.024 194.938 217.45 195.28 216.823 195.489L204.387 198.912C203.24 199.181 202.621 198.518 203.007 197.389Z" fill="#0E4FDA"/>
<path d="M213.409 169.667C212.762 170.157 212.261 170.813 211.958 171.566L202.998 197.389C202.895 197.594 202.852 197.824 202.875 198.052C202.897 198.28 202.983 198.498 203.123 198.679L202.012 197.729C201.853 197.553 201.751 197.333 201.721 197.097C201.69 196.862 201.733 196.623 201.842 196.412L210.802 170.58C211.085 169.878 211.545 169.261 212.137 168.788L213.409 169.667Z" fill="#37474F"/>
<path d="M224.941 177.453C224.045 180.078 220.936 181.834 215.793 183.053C210.65 184.271 207.809 189.728 208.625 191.386C209.44 193.043 217.755 194.593 221.079 194.118C224.403 193.644 227.736 188.841 228.749 187.354C229.761 185.866 230.926 175.491 229.86 174.066C228.794 172.641 226.545 172.865 226.545 172.865L224.941 177.453Z" fill="#F28F8F"/>
</svg>
