<svg width="37" height="56" viewBox="0 0 37 56" fill="none" xmlns="http://www.w3.org/2000/svg">
<path d="M29.0226 34.6976H6.6377C3.36977 34.6976 0.720947 31.965 0.720947 28.5937V6.1039C0.720947 2.73261 3.36977 0 6.6377 0H36.6321C36.6321 4.33498 33.2247 7.85018 29.0226 7.85018H14.2472C10.9793 7.85018 8.33044 10.5828 8.33044 13.9541V20.7436C8.33044 24.1149 10.9793 26.8475 14.2472 26.8475H36.6321C36.6321 31.1824 33.2247 34.6976 29.0226 34.6976Z" fill="white"/>
<path d="M36.6322 55.708H7.60949C3.40742 55.708 0 52.1928 0 47.8578H29.0227C33.2247 47.8578 36.6322 51.373 36.6322 55.708Z" fill="white"/>
</svg>
