<svg width="37" height="56" viewBox="0 0 37 56" fill="none" xmlns="http://www.w3.org/2000/svg">
<path d="M29.0227 34.7098H6.63773C3.3698 34.7098 0.720978 31.9772 0.720978 28.6059V6.11605C0.720978 2.74475 3.3698 0.012146 6.63773 0.012146H36.6322C36.6322 4.34713 33.2247 7.86233 29.0227 7.86233H14.2472C10.9793 7.86233 8.33047 10.5949 8.33047 13.9662V20.7557C8.33047 24.127 10.9793 26.8596 14.2472 26.8596H36.6322C36.6322 31.1946 33.2247 34.7098 29.0227 34.7098Z" fill="#0E3EDA"/>
<path d="M36.6322 55.7201H7.60949C3.40742 55.7201 0 52.2049 0 47.8699H29.0227C33.2247 47.8699 36.6322 51.3851 36.6322 55.7201Z" fill="#ED1675"/>
</svg>
